<svg width="272" height="124" viewBox="0 0 272 124" fill="none" xmlns="http://www.w3.org/2000/svg">
<g clip-path="url(#clip0_3586_7802)">
<path fill-rule="evenodd" clip-rule="evenodd" d="M269.842 4.67302C263.551 -5.57239 230.465 1.10932 189.223 19.1495C191.321 20.7092 193.418 22.4906 195.048 24.2724C226.738 11.3547 251.202 7.34626 256.329 15.8089C262.154 25.3865 239.085 49.2174 202.038 72.8262L202.505 73.271C247.708 45.2085 276.833 16.255 269.842 4.67302Z" fill="#0A0040"/>
<path fill-rule="evenodd" clip-rule="evenodd" d="M74.583 116.035C71.0877 110.021 78.5441 98.662 93.4559 85.0765C92.291 84.8529 91.1265 84.4072 89.9611 83.962C89.7282 83.962 89.7282 83.7385 89.7282 83.7385C88.5638 83.2937 87.3983 82.8485 86.2329 82.4037C68.292 98.2145 59.2049 111.579 63.3994 118.708C68.5254 126.948 90.6598 124.275 120.251 113.807L120.019 113.362C96.2516 121.157 78.777 122.716 74.583 116.035Z" fill="#0A0040"/>
<path fill-rule="evenodd" clip-rule="evenodd" d="M55.95 46.7679C55.95 22.4912 89.5023 2.66873 130.744 2.66873C172.218 2.66873 205.77 22.4912 205.77 46.7679C205.77 71.2672 172.218 91.0893 130.744 91.0893C89.5023 91.0888 55.95 71.2672 55.95 46.7679ZM98.3561 12.4689L112.57 58.5721L127.482 6.45458C116.996 6.90121 106.977 8.90428 98.3561 12.4689ZM126.782 31.6231L119.093 58.5721H134.705L126.782 31.6231ZM148.918 58.5721L162.432 12.0232C153.578 8.68213 143.559 6.6772 133.073 6.45458L148.918 58.5721ZM98.1237 58.5721L90.4334 31.6231L82.7456 58.5721H98.1237ZM186.897 63.9172C190.625 58.7943 192.723 53.0039 192.723 46.7675C192.723 34.9633 185.033 24.4953 172.451 16.9222L186.897 63.9172ZM171.054 58.5721L163.131 31.6231L155.443 58.5721H171.054ZM172.685 63.9172H153.811L152.181 69.708L156.607 83.5148C163.83 81.5108 170.354 78.3928 175.713 74.6088L172.685 63.9172ZM105.347 83.5153L99.7539 63.9177H81.1144L79.4827 69.4844C86.007 75.7205 94.8608 80.6213 105.346 83.7388L105.347 83.5153ZM136.336 63.9172H117.462L111.404 85.2976C117.462 86.6351 123.987 87.302 130.744 87.302C134.938 87.302 138.899 87.0804 142.86 86.4116L136.336 63.9172ZM87.8711 17.814C76.2212 25.1631 68.9982 35.4094 68.9982 46.7679C68.9982 53.0044 71.0947 58.5721 74.59 63.6946L87.8711 17.814Z" fill="#0A0040"/>
</g>
<defs>
<clipPath id="clip0_3586_7802">
<rect width="271.291" height="123.772" fill="white"/>
</clipPath>
</defs>
</svg>
