<svg width="1176" height="206" viewBox="0 0 1176 206" fill="none" xmlns="http://www.w3.org/2000/svg">
<g style="mix-blend-mode:plus-darker">
<path d="M-0.00390625 159.049C-0.00390625 133.368 20.8149 112.549 46.4961 112.549H589.496C615.177 112.549 635.996 133.368 635.996 159.049V159.049C635.996 184.73 615.177 205.549 589.496 205.549H46.4961C20.8149 205.549 -0.00390625 184.73 -0.00390625 159.049V159.049Z" fill="#1475FF"/>
</g>
<g style="mix-blend-mode:plus-darker">
<path d="M466.004 159.049C466.004 133.368 486.823 112.549 512.504 112.549H861.504C887.185 112.549 908.004 133.368 908.004 159.049V159.049C908.004 184.73 887.185 205.549 861.504 205.549H512.504C486.823 205.549 466.004 184.73 466.004 159.049V159.049Z" fill="#7DE6E9"/>
</g>
<g style="mix-blend-mode:plus-darker">
<rect x="722.004" y="112.549" width="454" height="93" rx="46.5" fill="#FC296F"/>
</g>
<rect x="491" y="2.93555" width="124" height="124" rx="62" fill="#7DE6E9"/>
<rect x="491" y="2.93555" width="124" height="124" rx="62" stroke="white" stroke-width="4"/>
<path d="M523.181 64.8955C523.181 63.5089 523.481 62.2755 524.081 61.1955C524.681 60.1022 525.515 59.2555 526.581 58.6555C527.661 58.0422 528.881 57.7355 530.241 57.7355C531.908 57.7355 533.335 58.1755 534.521 59.0555C535.708 59.9355 536.501 61.1355 536.901 62.6555H533.141C532.861 62.0689 532.461 61.6222 531.941 61.3155C531.435 61.0089 530.855 60.8555 530.201 60.8555C529.148 60.8555 528.295 61.2222 527.641 61.9555C526.988 62.6889 526.661 63.6689 526.661 64.8955C526.661 66.1222 526.988 67.1022 527.641 67.8355C528.295 68.5689 529.148 68.9355 530.201 68.9355C530.855 68.9355 531.435 68.7822 531.941 68.4755C532.461 68.1689 532.861 67.7222 533.141 67.1355H536.901C536.501 68.6555 535.708 69.8555 534.521 70.7355C533.335 71.6022 531.908 72.0355 530.241 72.0355C528.881 72.0355 527.661 71.7355 526.581 71.1355C525.515 70.5222 524.681 69.6755 524.081 68.5955C523.481 67.5155 523.181 66.2822 523.181 64.8955ZM542.416 57.1355V71.9355H538.996V57.1355H542.416ZM546.614 59.6155C546.014 59.6155 545.521 59.4422 545.134 59.0955C544.761 58.7355 544.574 58.2955 544.574 57.7755C544.574 57.2422 544.761 56.8022 545.134 56.4555C545.521 56.0955 546.014 55.9155 546.614 55.9155C547.201 55.9155 547.681 56.0955 548.054 56.4555C548.441 56.8022 548.634 57.2422 548.634 57.7755C548.634 58.2955 548.441 58.7355 548.054 59.0955C547.681 59.4422 547.201 59.6155 546.614 59.6155ZM548.314 60.7755V71.9355H544.894V60.7755H548.314ZM561.313 66.1755C561.313 66.4955 561.293 66.8289 561.253 67.1755H553.513C553.566 67.8689 553.786 68.4022 554.173 68.7755C554.573 69.1355 555.059 69.3155 555.633 69.3155C556.486 69.3155 557.079 68.9555 557.413 68.2355H561.053C560.866 68.9689 560.526 69.6289 560.033 70.2155C559.553 70.8022 558.946 71.2622 558.213 71.5955C557.479 71.9289 556.659 72.0955 555.753 72.0955C554.659 72.0955 553.686 71.8622 552.833 71.3955C551.979 70.9289 551.313 70.2622 550.833 69.3955C550.353 68.5289 550.113 67.5155 550.113 66.3555C550.113 65.1955 550.346 64.1822 550.813 63.3155C551.293 62.4489 551.959 61.7822 552.813 61.3155C553.666 60.8489 554.646 60.6155 555.753 60.6155C556.833 60.6155 557.793 60.8422 558.633 61.2955C559.473 61.7489 560.126 62.3955 560.593 63.2355C561.073 64.0755 561.313 65.0555 561.313 66.1755ZM557.813 65.2755C557.813 64.6889 557.613 64.2222 557.213 63.8755C556.813 63.5289 556.313 63.3555 555.713 63.3555C555.139 63.3555 554.653 63.5222 554.253 63.8555C553.866 64.1889 553.626 64.6622 553.533 65.2755H557.813ZM569.917 60.6555C571.224 60.6555 572.264 61.0822 573.037 61.9355C573.824 62.7755 574.217 63.9355 574.217 65.4155V71.9355H570.817V65.8755C570.817 65.1289 570.624 64.5489 570.237 64.1355C569.85 63.7222 569.33 63.5155 568.677 63.5155C568.024 63.5155 567.504 63.7222 567.117 64.1355C566.73 64.5489 566.537 65.1289 566.537 65.8755V71.9355H563.117V60.7755H566.537V62.2555C566.884 61.7622 567.35 61.3755 567.937 61.0955C568.524 60.8022 569.184 60.6555 569.917 60.6555ZM582.814 69.0355V71.9355H581.074C579.834 71.9355 578.867 71.6355 578.174 71.0355C577.48 70.4222 577.134 69.4289 577.134 68.0555V63.6155H575.774V60.7755H577.134V58.0555H580.554V60.7755H582.794V63.6155H580.554V68.0955C580.554 68.4289 580.634 68.6689 580.794 68.8155C580.954 68.9622 581.22 69.0355 581.594 69.0355H582.814Z" fill="white"/>
<rect x="752" y="2.93555" width="124" height="124" rx="62" fill="#FC296F"/>
<rect x="752" y="2.93555" width="124" height="124" rx="62" stroke="white" stroke-width="4"/>
<path d="M770.376 60.4555H765.136L764.296 62.9355H760.716L765.796 48.8955H769.756L774.836 62.9355H771.216L770.376 60.4555ZM769.496 57.8155L767.756 52.6755L766.036 57.8155H769.496ZM775.703 57.3555C775.703 56.1955 775.936 55.1822 776.403 54.3155C776.883 53.4489 777.543 52.7822 778.383 52.3155C779.236 51.8489 780.209 51.6155 781.303 51.6155C782.703 51.6155 783.869 51.9822 784.803 52.7155C785.749 53.4489 786.369 54.4822 786.663 55.8155H783.023C782.716 54.9622 782.123 54.5355 781.243 54.5355C780.616 54.5355 780.116 54.7822 779.743 55.2755C779.369 55.7555 779.183 56.4489 779.183 57.3555C779.183 58.2622 779.369 58.9622 779.743 59.4555C780.116 59.9355 780.616 60.1755 781.243 60.1755C782.123 60.1755 782.716 59.7489 783.023 58.8955H786.663C786.369 60.2022 785.749 61.2289 784.803 61.9755C783.856 62.7222 782.689 63.0955 781.303 63.0955C780.209 63.0955 779.236 62.8622 778.383 62.3955C777.543 61.9289 776.883 61.2622 776.403 60.3955C775.936 59.5289 775.703 58.5155 775.703 57.3555ZM794.712 60.0355V62.9355H792.972C791.732 62.9355 790.765 62.6355 790.072 62.0355C789.379 61.4222 789.032 60.4289 789.032 59.0555V54.6155H787.672V51.7755H789.032V49.0555H792.452V51.7755H794.692V54.6155H792.452V59.0955C792.452 59.4289 792.532 59.6689 792.692 59.8155C792.852 59.9622 793.119 60.0355 793.492 60.0355H794.712ZM798.337 50.6155C797.737 50.6155 797.244 50.4422 796.857 50.0955C796.484 49.7355 796.297 49.2955 796.297 48.7755C796.297 48.2422 796.484 47.8022 796.857 47.4555C797.244 47.0955 797.737 46.9155 798.337 46.9155C798.924 46.9155 799.404 47.0955 799.777 47.4555C800.164 47.8022 800.357 48.2422 800.357 48.7755C800.357 49.2955 800.164 49.7355 799.777 50.0955C799.404 50.4422 798.924 50.6155 798.337 50.6155ZM800.037 51.7755V62.9355H796.617V51.7755H800.037ZM807.535 59.7355L809.955 51.7755H813.595L809.635 62.9355H805.415L801.455 51.7755H805.115L807.535 59.7355ZM814.355 57.3355C814.355 56.1889 814.568 55.1822 814.995 54.3155C815.435 53.4489 816.028 52.7822 816.775 52.3155C817.522 51.8489 818.355 51.6155 819.275 51.6155C820.062 51.6155 820.748 51.7755 821.335 52.0955C821.935 52.4155 822.395 52.8355 822.715 53.3555V51.7755H826.135V62.9355H822.715V61.3555C822.382 61.8755 821.915 62.2955 821.315 62.6155C820.728 62.9355 820.042 63.0955 819.255 63.0955C818.348 63.0955 817.522 62.8622 816.775 62.3955C816.028 61.9155 815.435 61.2422 814.995 60.3755C814.568 59.4955 814.355 58.4822 814.355 57.3355ZM822.715 57.3555C822.715 56.5022 822.475 55.8289 821.995 55.3355C821.528 54.8422 820.955 54.5955 820.275 54.5955C819.595 54.5955 819.015 54.8422 818.535 55.3355C818.068 55.8155 817.835 56.4822 817.835 57.3355C817.835 58.1889 818.068 58.8689 818.535 59.3755C819.015 59.8689 819.595 60.1155 820.275 60.1155C820.955 60.1155 821.528 59.8689 821.995 59.3755C822.475 58.8822 822.715 58.2089 822.715 57.3555ZM834.829 60.0355V62.9355H833.089C831.849 62.9355 830.882 62.6355 830.189 62.0355C829.496 61.4222 829.149 60.4289 829.149 59.0555V54.6155H827.789V51.7755H829.149V49.0555H832.569V51.7755H834.809V54.6155H832.569V59.0955C832.569 59.4289 832.649 59.6689 832.809 59.8155C832.969 59.9622 833.236 60.0355 833.609 60.0355H834.829ZM838.454 50.6155C837.854 50.6155 837.361 50.4422 836.974 50.0955C836.601 49.7355 836.414 49.2955 836.414 48.7755C836.414 48.2422 836.601 47.8022 836.974 47.4555C837.361 47.0955 837.854 46.9155 838.454 46.9155C839.041 46.9155 839.521 47.0955 839.894 47.4555C840.281 47.8022 840.474 48.2422 840.474 48.7755C840.474 49.2955 840.281 49.7355 839.894 50.0955C839.521 50.4422 839.041 50.6155 838.454 50.6155ZM840.154 51.7755V62.9355H836.734V51.7755H840.154ZM847.713 63.0955C846.619 63.0955 845.633 62.8622 844.753 62.3955C843.886 61.9289 843.199 61.2622 842.693 60.3955C842.199 59.5289 841.953 58.5155 841.953 57.3555C841.953 56.2089 842.206 55.2022 842.713 54.3355C843.219 53.4555 843.913 52.7822 844.793 52.3155C845.673 51.8489 846.659 51.6155 847.753 51.6155C848.846 51.6155 849.833 51.8489 850.713 52.3155C851.593 52.7822 852.286 53.4555 852.793 54.3355C853.299 55.2022 853.553 56.2089 853.553 57.3555C853.553 58.5022 853.293 59.5155 852.773 60.3955C852.266 61.2622 851.566 61.9289 850.673 62.3955C849.793 62.8622 848.806 63.0955 847.713 63.0955ZM847.713 60.1355C848.366 60.1355 848.919 59.8955 849.373 59.4155C849.839 58.9355 850.073 58.2489 850.073 57.3555C850.073 56.4622 849.846 55.7755 849.393 55.2955C848.953 54.8155 848.406 54.5755 847.753 54.5755C847.086 54.5755 846.533 54.8155 846.093 55.2955C845.653 55.7622 845.433 56.4489 845.433 57.3555C845.433 58.2489 845.646 58.9355 846.073 59.4155C846.513 59.8955 847.059 60.1355 847.713 60.1355ZM862.167 51.6555C863.474 51.6555 864.514 52.0822 865.287 52.9355C866.074 53.7755 866.467 54.9355 866.467 56.4155V62.9355H863.067V56.8755C863.067 56.1289 862.874 55.5489 862.487 55.1355C862.1 54.7222 861.58 54.5155 860.927 54.5155C860.274 54.5155 859.754 54.7222 859.367 55.1355C858.98 55.5489 858.787 56.1289 858.787 56.8755V62.9355H855.367V51.7755H858.787V53.2555C859.134 52.7622 859.6 52.3755 860.187 52.0955C860.774 51.8022 861.434 51.6555 862.167 51.6555ZM784.421 66.8955V80.9355H781.001V72.5155L777.861 80.9355H775.101L771.941 72.4955V80.9355H768.521V66.8955H772.561L776.501 76.6155L780.401 66.8955H784.421ZM786.201 75.3355C786.201 74.1889 786.414 73.1822 786.841 72.3155C787.281 71.4489 787.874 70.7822 788.621 70.3155C789.367 69.8489 790.201 69.6155 791.121 69.6155C791.907 69.6155 792.594 69.7755 793.181 70.0955C793.781 70.4155 794.241 70.8355 794.561 71.3555V69.7755H797.981V80.9355H794.561V79.3555C794.227 79.8755 793.761 80.2955 793.161 80.6155C792.574 80.9355 791.887 81.0955 791.101 81.0955C790.194 81.0955 789.367 80.8622 788.621 80.3955C787.874 79.9155 787.281 79.2422 786.841 78.3755C786.414 77.4955 786.201 76.4822 786.201 75.3355ZM794.561 75.3555C794.561 74.5022 794.321 73.8289 793.841 73.3355C793.374 72.8422 792.801 72.5955 792.121 72.5955C791.441 72.5955 790.861 72.8422 790.381 73.3355C789.914 73.8155 789.681 74.4822 789.681 75.3355C789.681 76.1889 789.914 76.8689 790.381 77.3755C790.861 77.8689 791.441 78.1155 792.121 78.1155C792.801 78.1155 793.374 77.8689 793.841 77.3755C794.321 76.8822 794.561 76.2089 794.561 75.3555ZM807.255 69.6555C808.562 69.6555 809.602 70.0822 810.375 70.9355C811.162 71.7755 811.555 72.9355 811.555 74.4155V80.9355H808.155V74.8755C808.155 74.1289 807.962 73.5489 807.575 73.1355C807.188 72.7222 806.668 72.5155 806.015 72.5155C805.362 72.5155 804.842 72.7222 804.455 73.1355C804.068 73.5489 803.875 74.1289 803.875 74.8755V80.9355H800.455V69.7755H803.875V71.2555C804.222 70.7622 804.688 70.3755 805.275 70.0955C805.862 69.8022 806.522 69.6555 807.255 69.6555ZM813.251 75.3355C813.251 74.1889 813.465 73.1822 813.891 72.3155C814.331 71.4489 814.925 70.7822 815.671 70.3155C816.418 69.8489 817.251 69.6155 818.171 69.6155C818.958 69.6155 819.645 69.7755 820.231 70.0955C820.831 70.4155 821.291 70.8355 821.611 71.3555V69.7755H825.031V80.9355H821.611V79.3555C821.278 79.8755 820.811 80.2955 820.211 80.6155C819.625 80.9355 818.938 81.0955 818.151 81.0955C817.245 81.0955 816.418 80.8622 815.671 80.3955C814.925 79.9155 814.331 79.2422 813.891 78.3755C813.465 77.4955 813.251 76.4822 813.251 75.3355ZM821.611 75.3555C821.611 74.5022 821.371 73.8289 820.891 73.3355C820.425 72.8422 819.851 72.5955 819.171 72.5955C818.491 72.5955 817.911 72.8422 817.431 73.3355C816.965 73.8155 816.731 74.4822 816.731 75.3355C816.731 76.1889 816.965 76.8689 817.431 77.3755C817.911 77.8689 818.491 78.1155 819.171 78.1155C819.851 78.1155 820.425 77.8689 820.891 77.3755C821.371 76.8822 821.611 76.2089 821.611 75.3555ZM831.746 69.6155C832.532 69.6155 833.219 69.7755 833.806 70.0955C834.406 70.4155 834.866 70.8355 835.186 71.3555V69.7755H838.606V80.9155C838.606 81.9422 838.399 82.8689 837.986 83.6955C837.586 84.5355 836.966 85.2022 836.126 85.6955C835.299 86.1889 834.266 86.4355 833.026 86.4355C831.372 86.4355 830.032 86.0422 829.006 85.2555C827.979 84.4822 827.392 83.4289 827.246 82.0955H830.626C830.732 82.5222 830.986 82.8555 831.386 83.0955C831.786 83.3489 832.279 83.4755 832.866 83.4755C833.572 83.4755 834.132 83.2689 834.546 82.8555C834.972 82.4555 835.186 81.8089 835.186 80.9155V79.3355C834.852 79.8555 834.392 80.2822 833.806 80.6155C833.219 80.9355 832.532 81.0955 831.746 81.0955C830.826 81.0955 829.992 80.8622 829.246 80.3955C828.499 79.9155 827.906 79.2422 827.466 78.3755C827.039 77.4955 826.826 76.4822 826.826 75.3355C826.826 74.1889 827.039 73.1822 827.466 72.3155C827.906 71.4489 828.499 70.7822 829.246 70.3155C829.992 69.8489 830.826 69.6155 831.746 69.6155ZM835.186 75.3555C835.186 74.5022 834.946 73.8289 834.466 73.3355C833.999 72.8422 833.426 72.5955 832.746 72.5955C832.066 72.5955 831.486 72.8422 831.006 73.3355C830.539 73.8155 830.306 74.4822 830.306 75.3355C830.306 76.1889 830.539 76.8689 831.006 77.3755C831.486 77.8689 832.066 78.1155 832.746 78.1155C833.426 78.1155 833.999 77.8689 834.466 77.3755C834.946 76.8822 835.186 76.2089 835.186 75.3555ZM851.6 75.1755C851.6 75.4955 851.58 75.8289 851.54 76.1755H843.8C843.853 76.8689 844.073 77.4022 844.46 77.7755C844.86 78.1355 845.347 78.3155 845.92 78.3155C846.773 78.3155 847.367 77.9555 847.7 77.2355H851.34C851.153 77.9689 850.813 78.6289 850.32 79.2155C849.84 79.8022 849.233 80.2622 848.5 80.5955C847.767 80.9289 846.947 81.0955 846.04 81.0955C844.947 81.0955 843.973 80.8622 843.12 80.3955C842.267 79.9289 841.6 79.2622 841.12 78.3955C840.64 77.5289 840.4 76.5155 840.4 75.3555C840.4 74.1955 840.633 73.1822 841.1 72.3155C841.58 71.4489 842.247 70.7822 843.1 70.3155C843.953 69.8489 844.933 69.6155 846.04 69.6155C847.12 69.6155 848.08 69.8422 848.92 70.2955C849.76 70.7489 850.413 71.3955 850.88 72.2355C851.36 73.0755 851.6 74.0555 851.6 75.1755ZM848.1 74.2755C848.1 73.6889 847.9 73.2222 847.5 72.8755C847.1 72.5289 846.6 72.3555 846 72.3555C845.427 72.3555 844.94 72.5222 844.54 72.8555C844.153 73.1889 843.913 73.6622 843.82 74.2755H848.1ZM856.824 71.6355C857.224 71.0222 857.724 70.5422 858.324 70.1955C858.924 69.8355 859.591 69.6555 860.324 69.6555V73.2755H859.384C858.531 73.2755 857.891 73.4622 857.464 73.8355C857.037 74.1955 856.824 74.8355 856.824 75.7555V80.9355H853.404V69.7755H856.824V71.6355Z" fill="white"/>
<path d="M47.532 168.738C46.146 168.738 44.904 168.513 43.806 168.063C42.708 167.613 41.826 166.947 41.16 166.065C40.512 165.183 40.17 164.121 40.134 162.879H45.048C45.12 163.581 45.363 164.121 45.777 164.499C46.191 164.859 46.731 165.039 47.397 165.039C48.081 165.039 48.621 164.886 49.017 164.58C49.413 164.256 49.611 163.815 49.611 163.257C49.611 162.789 49.449 162.402 49.125 162.096C48.819 161.79 48.432 161.538 47.964 161.34C47.514 161.142 46.866 160.917 46.02 160.665C44.796 160.287 43.797 159.909 43.023 159.531C42.249 159.153 41.583 158.595 41.025 157.857C40.467 157.119 40.188 156.156 40.188 154.968C40.188 153.204 40.827 151.827 42.105 150.837C43.383 149.829 45.048 149.325 47.1 149.325C49.188 149.325 50.871 149.829 52.149 150.837C53.427 151.827 54.111 153.213 54.201 154.995H49.206C49.17 154.383 48.945 153.906 48.531 153.564C48.117 153.204 47.586 153.024 46.938 153.024C46.38 153.024 45.93 153.177 45.588 153.483C45.246 153.771 45.075 154.194 45.075 154.752C45.075 155.364 45.363 155.841 45.939 156.183C46.515 156.525 47.415 156.894 48.639 157.29C49.863 157.704 50.853 158.1 51.609 158.478C52.383 158.856 53.049 159.405 53.607 160.125C54.165 160.845 54.444 161.772 54.444 162.906C54.444 163.986 54.165 164.967 53.607 165.849C53.067 166.731 52.275 167.433 51.231 167.955C50.187 168.477 48.954 168.738 47.532 168.738ZM71.4873 160.773C71.4873 161.205 71.4603 161.655 71.4063 162.123H60.9573C61.0293 163.059 61.3263 163.779 61.8483 164.283C62.3883 164.769 63.0453 165.012 63.8193 165.012C64.9713 165.012 65.7723 164.526 66.2223 163.554H71.1363C70.8843 164.544 70.4253 165.435 69.7593 166.227C69.1113 167.019 68.2923 167.64 67.3023 168.09C66.3123 168.54 65.2053 168.765 63.9813 168.765C62.5053 168.765 61.1913 168.45 60.0393 167.82C58.8873 167.19 57.9873 166.29 57.3393 165.12C56.6913 163.95 56.3673 162.582 56.3673 161.016C56.3673 159.45 56.6823 158.082 57.3123 156.912C57.9603 155.742 58.8603 154.842 60.0123 154.212C61.1643 153.582 62.4873 153.267 63.9813 153.267C65.4393 153.267 66.7353 153.573 67.8693 154.185C69.0033 154.797 69.8853 155.67 70.5153 156.804C71.1633 157.938 71.4873 159.261 71.4873 160.773ZM66.7623 159.558C66.7623 158.766 66.4923 158.136 65.9523 157.668C65.4123 157.2 64.7373 156.966 63.9273 156.966C63.1533 156.966 62.4963 157.191 61.9563 157.641C61.4343 158.091 61.1103 158.73 60.9843 159.558H66.7623ZM73.005 160.989C73.005 159.441 73.293 158.082 73.869 156.912C74.463 155.742 75.264 154.842 76.272 154.212C77.28 153.582 78.405 153.267 79.647 153.267C80.709 153.267 81.636 153.483 82.428 153.915C83.238 154.347 83.859 154.914 84.291 155.616V153.483H88.908V168.549H84.291V166.416C83.841 167.118 83.211 167.685 82.401 168.117C81.609 168.549 80.682 168.765 79.62 168.765C78.396 168.765 77.28 168.45 76.272 167.82C75.264 167.172 74.463 166.263 73.869 165.093C73.293 163.905 73.005 162.537 73.005 160.989ZM84.291 161.016C84.291 159.864 83.967 158.955 83.319 158.289C82.689 157.623 81.915 157.29 80.997 157.29C80.079 157.29 79.296 157.623 78.648 158.289C78.018 158.937 77.703 159.837 77.703 160.989C77.703 162.141 78.018 163.059 78.648 163.743C79.296 164.409 80.079 164.742 80.997 164.742C81.915 164.742 82.689 164.409 83.319 163.743C83.967 163.077 84.291 162.168 84.291 161.016ZM96.8652 155.994C97.4052 155.166 98.0802 154.518 98.8902 154.05C99.7002 153.564 100.6 153.321 101.59 153.321V158.208H100.321C99.1692 158.208 98.3052 158.46 97.7292 158.964C97.1532 159.45 96.8652 160.314 96.8652 161.556V168.549H92.2482V153.483H96.8652V155.994ZM102.879 161.016C102.879 159.45 103.194 158.082 103.824 156.912C104.472 155.742 105.363 154.842 106.497 154.212C107.649 153.582 108.963 153.267 110.439 153.267C112.329 153.267 113.904 153.762 115.164 154.752C116.442 155.742 117.279 157.137 117.675 158.937H112.761C112.347 157.785 111.546 157.209 110.358 157.209C109.512 157.209 108.837 157.542 108.333 158.208C107.829 158.856 107.577 159.792 107.577 161.016C107.577 162.24 107.829 163.185 108.333 163.851C108.837 164.499 109.512 164.823 110.358 164.823C111.546 164.823 112.347 164.247 112.761 163.095H117.675C117.279 164.859 116.442 166.245 115.164 167.253C113.886 168.261 112.311 168.765 110.439 168.765C108.963 168.765 107.649 168.45 106.497 167.82C105.363 167.19 104.472 166.29 103.824 165.12C103.194 163.95 102.879 162.582 102.879 161.016ZM129.406 153.321C131.134 153.321 132.52 153.897 133.564 155.049C134.608 156.183 135.13 157.749 135.13 159.747V168.549H130.54V160.368C130.54 159.36 130.279 158.577 129.757 158.019C129.235 157.461 128.533 157.182 127.651 157.182C126.769 157.182 126.067 157.461 125.545 158.019C125.023 158.577 124.762 159.36 124.762 160.368V168.549H120.145V148.569H124.762V155.508C125.23 154.842 125.869 154.311 126.679 153.915C127.489 153.519 128.398 153.321 129.406 153.321Z" fill="white"/>
<path d="M303.291 164.985H309.339V168.549H298.674V149.595H303.291V164.985ZM313.863 151.917C313.053 151.917 312.387 151.683 311.865 151.215C311.361 150.729 311.109 150.135 311.109 149.433C311.109 148.713 311.361 148.119 311.865 147.651C312.387 147.165 313.053 146.922 313.863 146.922C314.655 146.922 315.303 147.165 315.807 147.651C316.329 148.119 316.59 148.713 316.59 149.433C316.59 150.135 316.329 150.729 315.807 151.215C315.303 151.683 314.655 151.917 313.863 151.917ZM316.158 153.483V168.549H311.541V153.483H316.158ZM325.633 168.765C324.319 168.765 323.149 168.54 322.123 168.09C321.097 167.64 320.287 167.028 319.693 166.254C319.099 165.462 318.766 164.58 318.694 163.608H323.257C323.311 164.13 323.554 164.553 323.986 164.877C324.418 165.201 324.949 165.363 325.579 165.363C326.155 165.363 326.596 165.255 326.902 165.039C327.226 164.805 327.388 164.508 327.388 164.148C327.388 163.716 327.163 163.401 326.713 163.203C326.263 162.987 325.534 162.753 324.526 162.501C323.446 162.249 322.546 161.988 321.826 161.718C321.106 161.43 320.485 160.989 319.963 160.395C319.441 159.783 319.18 158.964 319.18 157.938C319.18 157.074 319.414 156.291 319.882 155.589C320.368 154.869 321.07 154.302 321.988 153.888C322.924 153.474 324.031 153.267 325.309 153.267C327.199 153.267 328.684 153.735 329.764 154.671C330.862 155.607 331.492 156.849 331.654 158.397H327.388C327.316 157.875 327.082 157.461 326.686 157.155C326.308 156.849 325.804 156.696 325.174 156.696C324.634 156.696 324.22 156.804 323.932 157.02C323.644 157.218 323.5 157.497 323.5 157.857C323.5 158.289 323.725 158.613 324.175 158.829C324.643 159.045 325.363 159.261 326.335 159.477C327.451 159.765 328.36 160.053 329.062 160.341C329.764 160.611 330.376 161.061 330.898 161.691C331.438 162.303 331.717 163.131 331.735 164.175C331.735 165.057 331.483 165.849 330.979 166.551C330.493 167.235 329.782 167.775 328.846 168.171C327.928 168.567 326.857 168.765 325.633 168.765ZM342.957 164.634V168.549H340.608C338.934 168.549 337.629 168.144 336.693 167.334C335.757 166.506 335.289 165.165 335.289 163.311V157.317H333.453V153.483H335.289V149.811H339.906V153.483H342.93V157.317H339.906V163.365C339.906 163.815 340.014 164.139 340.23 164.337C340.446 164.535 340.806 164.634 341.31 164.634H342.957Z" fill="white"/>
<path d="M515.34 168.549L511.398 161.394H510.291V168.549H505.674V149.595H513.423C514.917 149.595 516.186 149.856 517.23 150.378C518.292 150.9 519.084 151.62 519.606 152.538C520.128 153.438 520.389 154.446 520.389 155.562C520.389 156.822 520.029 157.947 519.309 158.937C518.607 159.927 517.563 160.629 516.177 161.043L520.551 168.549H515.34ZM510.291 158.127H513.153C513.999 158.127 514.629 157.92 515.043 157.506C515.475 157.092 515.691 156.507 515.691 155.751C515.691 155.031 515.475 154.464 515.043 154.05C514.629 153.636 513.999 153.429 513.153 153.429H510.291V158.127ZM537.489 160.773C537.489 161.205 537.462 161.655 537.408 162.123H526.959C527.031 163.059 527.328 163.779 527.85 164.283C528.39 164.769 529.047 165.012 529.821 165.012C530.973 165.012 531.774 164.526 532.224 163.554H537.138C536.886 164.544 536.427 165.435 535.761 166.227C535.113 167.019 534.294 167.64 533.304 168.09C532.314 168.54 531.207 168.765 529.983 168.765C528.507 168.765 527.193 168.45 526.041 167.82C524.889 167.19 523.989 166.29 523.341 165.12C522.693 163.95 522.369 162.582 522.369 161.016C522.369 159.45 522.684 158.082 523.314 156.912C523.962 155.742 524.862 154.842 526.014 154.212C527.166 153.582 528.489 153.267 529.983 153.267C531.441 153.267 532.737 153.573 533.871 154.185C535.005 154.797 535.887 155.67 536.517 156.804C537.165 157.938 537.489 159.261 537.489 160.773ZM532.764 159.558C532.764 158.766 532.494 158.136 531.954 157.668C531.414 157.2 530.739 156.966 529.929 156.966C529.155 156.966 528.498 157.191 527.958 157.641C527.436 158.091 527.112 158.73 526.986 159.558H532.764ZM544.542 155.616C544.992 154.914 545.613 154.347 546.405 153.915C547.197 153.483 548.124 153.267 549.186 153.267C550.428 153.267 551.553 153.582 552.561 154.212C553.569 154.842 554.361 155.742 554.937 156.912C555.531 158.082 555.828 159.441 555.828 160.989C555.828 162.537 555.531 163.905 554.937 165.093C554.361 166.263 553.569 167.172 552.561 167.82C551.553 168.45 550.428 168.765 549.186 168.765C548.142 168.765 547.215 168.549 546.405 168.117C545.613 167.685 544.992 167.127 544.542 166.443V175.731H539.925V153.483H544.542V155.616ZM551.13 160.989C551.13 159.837 550.806 158.937 550.158 158.289C549.528 157.623 548.745 157.29 547.809 157.29C546.891 157.29 546.108 157.623 545.46 158.289C544.83 158.955 544.515 159.864 544.515 161.016C544.515 162.168 544.83 163.077 545.46 163.743C546.108 164.409 546.891 164.742 547.809 164.742C548.727 164.742 549.51 164.409 550.158 163.743C550.806 163.059 551.13 162.141 551.13 160.989ZM565.108 168.765C563.632 168.765 562.3 168.45 561.112 167.82C559.942 167.19 559.015 166.29 558.331 165.12C557.665 163.95 557.332 162.582 557.332 161.016C557.332 159.468 557.674 158.109 558.358 156.939C559.042 155.751 559.978 154.842 561.166 154.212C562.354 153.582 563.686 153.267 565.162 153.267C566.638 153.267 567.97 153.582 569.158 154.212C570.346 154.842 571.282 155.751 571.966 156.939C572.65 158.109 572.992 159.468 572.992 161.016C572.992 162.564 572.641 163.932 571.939 165.12C571.255 166.29 570.31 167.19 569.104 167.82C567.916 168.45 566.584 168.765 565.108 168.765ZM565.108 164.769C565.99 164.769 566.737 164.445 567.349 163.797C567.979 163.149 568.294 162.222 568.294 161.016C568.294 159.81 567.988 158.883 567.376 158.235C566.782 157.587 566.044 157.263 565.162 157.263C564.262 157.263 563.515 157.587 562.921 158.235C562.327 158.865 562.03 159.792 562.03 161.016C562.03 162.222 562.318 163.149 562.894 163.797C563.488 164.445 564.226 164.769 565.108 164.769ZM580.059 155.994C580.599 155.166 581.274 154.518 582.084 154.05C582.894 153.564 583.794 153.321 584.784 153.321V158.208H583.515C582.363 158.208 581.499 158.46 580.923 158.964C580.347 159.45 580.059 160.314 580.059 161.556V168.549H575.442V153.483H580.059V155.994ZM595.387 164.634V168.549H593.038C591.364 168.549 590.059 168.144 589.123 167.334C588.187 166.506 587.719 165.165 587.719 163.311V157.317H585.883V153.483H587.719V149.811H592.336V153.483H595.36V157.317H592.336V163.365C592.336 163.815 592.444 164.139 592.66 164.337C592.876 164.535 593.236 164.634 593.74 164.634H595.387Z" fill="white"/>
<path d="M757.891 159.045C757.891 157.173 758.296 155.508 759.106 154.05C759.916 152.574 761.041 151.431 762.481 150.621C763.939 149.793 765.586 149.379 767.422 149.379C769.672 149.379 771.598 149.973 773.2 151.161C774.802 152.349 775.873 153.969 776.413 156.021H771.337C770.959 155.229 770.419 154.626 769.717 154.212C769.033 153.798 768.25 153.591 767.368 153.591C765.946 153.591 764.794 154.086 763.912 155.076C763.03 156.066 762.589 157.389 762.589 159.045C762.589 160.701 763.03 162.024 763.912 163.014C764.794 164.004 765.946 164.499 767.368 164.499C768.25 164.499 769.033 164.292 769.717 163.878C770.419 163.464 770.959 162.861 771.337 162.069H776.413C775.873 164.121 774.802 165.741 773.2 166.929C771.598 168.099 769.672 168.684 767.422 168.684C765.586 168.684 763.939 168.279 762.481 167.469C761.041 166.641 759.916 165.498 759.106 164.04C758.296 162.582 757.891 160.917 757.891 159.045ZM786.098 168.765C784.622 168.765 783.29 168.45 782.102 167.82C780.932 167.19 780.005 166.29 779.321 165.12C778.655 163.95 778.322 162.582 778.322 161.016C778.322 159.468 778.664 158.109 779.348 156.939C780.032 155.751 780.968 154.842 782.156 154.212C783.344 153.582 784.676 153.267 786.152 153.267C787.628 153.267 788.96 153.582 790.148 154.212C791.336 154.842 792.272 155.751 792.956 156.939C793.64 158.109 793.982 159.468 793.982 161.016C793.982 162.564 793.631 163.932 792.929 165.12C792.245 166.29 791.3 167.19 790.094 167.82C788.906 168.45 787.574 168.765 786.098 168.765ZM786.098 164.769C786.98 164.769 787.727 164.445 788.339 163.797C788.969 163.149 789.284 162.222 789.284 161.016C789.284 159.81 788.978 158.883 788.366 158.235C787.772 157.587 787.034 157.263 786.152 157.263C785.252 157.263 784.505 157.587 783.911 158.235C783.317 158.865 783.02 159.792 783.02 161.016C783.02 162.222 783.308 163.149 783.884 163.797C784.478 164.445 785.216 164.769 786.098 164.769ZM805.612 153.321C807.376 153.321 808.78 153.897 809.824 155.049C810.886 156.183 811.417 157.749 811.417 159.747V168.549H806.827V160.368C806.827 159.36 806.566 158.577 806.044 158.019C805.522 157.461 804.82 157.182 803.938 157.182C803.056 157.182 802.354 157.461 801.832 158.019C801.31 158.577 801.049 159.36 801.049 160.368V168.549H796.432V153.483H801.049V155.481C801.517 154.815 802.147 154.293 802.939 153.915C803.731 153.519 804.622 153.321 805.612 153.321ZM823.022 164.634V168.549H820.673C818.999 168.549 817.694 168.144 816.758 167.334C815.822 166.506 815.354 165.165 815.354 163.311V157.317H813.518V153.483H815.354V149.811H819.971V153.483H822.995V157.317H819.971V163.365C819.971 163.815 820.079 164.139 820.295 164.337C820.511 164.535 820.871 164.634 821.375 164.634H823.022ZM839.796 160.773C839.796 161.205 839.769 161.655 839.715 162.123H829.266C829.338 163.059 829.635 163.779 830.157 164.283C830.697 164.769 831.354 165.012 832.128 165.012C833.28 165.012 834.081 164.526 834.531 163.554H839.445C839.193 164.544 838.734 165.435 838.068 166.227C837.42 167.019 836.601 167.64 835.611 168.09C834.621 168.54 833.514 168.765 832.29 168.765C830.814 168.765 829.5 168.45 828.348 167.82C827.196 167.19 826.296 166.29 825.648 165.12C825 163.95 824.676 162.582 824.676 161.016C824.676 159.45 824.991 158.082 825.621 156.912C826.269 155.742 827.169 154.842 828.321 154.212C829.473 153.582 830.796 153.267 832.29 153.267C833.748 153.267 835.044 153.573 836.178 154.185C837.312 154.797 838.194 155.67 838.824 156.804C839.472 157.938 839.796 159.261 839.796 160.773ZM835.071 159.558C835.071 158.766 834.801 158.136 834.261 157.668C833.721 157.2 833.046 156.966 832.236 156.966C831.462 156.966 830.805 157.191 830.265 157.641C829.743 158.091 829.419 158.73 829.293 159.558H835.071ZM851.412 153.321C853.176 153.321 854.58 153.897 855.624 155.049C856.686 156.183 857.217 157.749 857.217 159.747V168.549H852.627V160.368C852.627 159.36 852.366 158.577 851.844 158.019C851.322 157.461 850.62 157.182 849.738 157.182C848.856 157.182 848.154 157.461 847.632 158.019C847.11 158.577 846.849 159.36 846.849 160.368V168.549H842.232V153.483H846.849V155.481C847.317 154.815 847.947 154.293 848.739 153.915C849.531 153.519 850.422 153.321 851.412 153.321ZM868.822 164.634V168.549H866.473C864.799 168.549 863.494 168.144 862.558 167.334C861.622 166.506 861.154 165.165 861.154 163.311V157.317H859.318V153.483H861.154V149.811H865.771V153.483H868.795V157.317H865.771V163.365C865.771 163.815 865.879 164.139 866.095 164.337C866.311 164.535 866.671 164.634 867.175 164.634H868.822Z" fill="white"/>
<path d="M1036.29 164.985H1042.34V168.549H1031.67V149.595H1036.29V164.985ZM1043.62 160.989C1043.62 159.441 1043.91 158.082 1044.49 156.912C1045.08 155.742 1045.88 154.842 1046.89 154.212C1047.9 153.582 1049.02 153.267 1050.27 153.267C1051.33 153.267 1052.25 153.483 1053.05 153.915C1053.86 154.347 1054.48 154.914 1054.91 155.616V153.483H1059.53V168.549H1054.91V166.416C1054.46 167.118 1053.83 167.685 1053.02 168.117C1052.23 168.549 1051.3 168.765 1050.24 168.765C1049.01 168.765 1047.9 168.45 1046.89 167.82C1045.88 167.172 1045.08 166.263 1044.49 165.093C1043.91 163.905 1043.62 162.537 1043.62 160.989ZM1054.91 161.016C1054.91 159.864 1054.59 158.955 1053.94 158.289C1053.31 157.623 1052.53 157.29 1051.62 157.29C1050.7 157.29 1049.91 157.623 1049.27 158.289C1048.64 158.937 1048.32 159.837 1048.32 160.989C1048.32 162.141 1048.64 163.059 1049.27 163.743C1049.91 164.409 1050.7 164.742 1051.62 164.742C1052.53 164.742 1053.31 164.409 1053.94 163.743C1054.59 163.077 1054.91 162.168 1054.91 161.016ZM1077.74 153.483V168.549H1073.13V166.497C1072.66 167.163 1072.02 167.703 1071.21 168.117C1070.42 168.513 1069.54 168.711 1068.56 168.711C1067.41 168.711 1066.39 168.459 1065.51 167.955C1064.63 167.433 1063.95 166.686 1063.46 165.714C1062.97 164.742 1062.73 163.599 1062.73 162.285V153.483H1067.32V161.664C1067.32 162.672 1067.58 163.455 1068.1 164.013C1068.63 164.571 1069.33 164.85 1070.21 164.85C1071.11 164.85 1071.82 164.571 1072.34 164.013C1072.87 163.455 1073.13 162.672 1073.13 161.664V153.483H1077.74ZM1090.24 153.321C1092 153.321 1093.41 153.897 1094.45 155.049C1095.51 156.183 1096.04 157.749 1096.04 159.747V168.549H1091.45V160.368C1091.45 159.36 1091.19 158.577 1090.67 158.019C1090.15 157.461 1089.45 157.182 1088.57 157.182C1087.68 157.182 1086.98 157.461 1086.46 158.019C1085.94 158.577 1085.68 159.36 1085.68 160.368V168.549H1081.06V153.483H1085.68V155.481C1086.14 154.815 1086.77 154.293 1087.57 153.915C1088.36 153.519 1089.25 153.321 1090.24 153.321ZM1098.34 161.016C1098.34 159.45 1098.65 158.082 1099.28 156.912C1099.93 155.742 1100.82 154.842 1101.95 154.212C1103.11 153.582 1104.42 153.267 1105.9 153.267C1107.79 153.267 1109.36 153.762 1110.62 154.752C1111.9 155.742 1112.74 157.137 1113.13 158.937H1108.22C1107.8 157.785 1107 157.209 1105.81 157.209C1104.97 157.209 1104.29 157.542 1103.79 158.208C1103.29 158.856 1103.03 159.792 1103.03 161.016C1103.03 162.24 1103.29 163.185 1103.79 163.851C1104.29 164.499 1104.97 164.823 1105.81 164.823C1107 164.823 1107.8 164.247 1108.22 163.095H1113.13C1112.74 164.859 1111.9 166.245 1110.62 167.253C1109.34 168.261 1107.77 168.765 1105.9 168.765C1104.42 168.765 1103.11 168.45 1101.95 167.82C1100.82 167.19 1099.93 166.29 1099.28 165.12C1098.65 163.95 1098.34 162.582 1098.34 161.016ZM1124.86 153.321C1126.59 153.321 1127.98 153.897 1129.02 155.049C1130.06 156.183 1130.59 157.749 1130.59 159.747V168.549H1126V160.368C1126 159.36 1125.73 158.577 1125.21 158.019C1124.69 157.461 1123.99 157.182 1123.11 157.182C1122.22 157.182 1121.52 157.461 1121 158.019C1120.48 158.577 1120.22 159.36 1120.22 160.368V168.549H1115.6V148.569H1120.22V155.508C1120.69 154.842 1121.32 154.311 1122.13 153.915C1122.94 153.519 1123.85 153.321 1124.86 153.321Z" fill="white"/>
<path d="M240.061 159.609C240.646 159.024 240.646 158.074 240.061 157.488L230.515 147.942C229.929 147.356 228.979 147.356 228.393 147.942C227.808 148.528 227.808 149.478 228.393 150.064L236.879 158.549L228.393 167.034C227.808 167.62 227.808 168.57 228.393 169.155C228.979 169.741 229.929 169.741 230.515 169.155L240.061 159.609ZM195 160.049H239V157.049H195V160.049Z" fill="white"/>
<path d="M447.061 159.609C447.646 159.024 447.646 158.074 447.061 157.488L437.515 147.942C436.929 147.356 435.979 147.356 435.393 147.942C434.808 148.528 434.808 149.478 435.393 150.064L443.879 158.549L435.393 167.034C434.808 167.62 434.808 168.57 435.393 169.155C435.979 169.741 436.929 169.741 437.515 169.155L447.061 159.609ZM402 160.049H446V157.049H402V160.049Z" fill="white"/>
<path d="M700.061 159.609C700.646 159.024 700.646 158.074 700.061 157.488L690.515 147.942C689.929 147.356 688.979 147.356 688.393 147.942C687.808 148.528 687.808 149.478 688.393 150.064L696.879 158.549L688.393 167.034C687.808 167.62 687.808 168.57 688.393 169.155C688.979 169.741 689.929 169.741 690.515 169.155L700.061 159.609ZM655 160.049H699V157.049H655V160.049Z" fill="white"/>
<path d="M973.061 159.609C973.646 159.024 973.646 158.074 973.061 157.488L963.515 147.942C962.929 147.356 961.979 147.356 961.393 147.942C960.808 148.528 960.808 149.478 961.393 150.064L969.879 158.549L961.393 167.034C960.808 167.62 960.808 168.57 961.393 169.155C961.979 169.741 962.929 169.741 963.515 169.155L973.061 159.609ZM928 160.049H972V157.049H928V160.049Z" fill="white"/>
<rect x="28" y="2.93555" width="124" height="124" rx="62" fill="#1475FF"/>
<rect x="28" y="2.93555" width="124" height="124" rx="62" stroke="white" stroke-width="4"/>
<path d="M68.7326 48.8955V51.6355H65.0126V62.9355H61.5926V51.6355H57.8726V48.8955H68.7326ZM69.769 57.3355C69.769 56.1889 69.9823 55.1822 70.409 54.3155C70.849 53.4489 71.4423 52.7822 72.189 52.3155C72.9357 51.8489 73.769 51.6155 74.689 51.6155C75.4757 51.6155 76.1623 51.7755 76.749 52.0955C77.349 52.4155 77.809 52.8355 78.129 53.3555V51.7755H81.549V62.9355H78.129V61.3555C77.7957 61.8755 77.329 62.2955 76.729 62.6155C76.1423 62.9355 75.4557 63.0955 74.669 63.0955C73.7623 63.0955 72.9357 62.8622 72.189 62.3955C71.4423 61.9155 70.849 61.2422 70.409 60.3755C69.9823 59.4955 69.769 58.4822 69.769 57.3355ZM78.129 57.3555C78.129 56.5022 77.889 55.8289 77.409 55.3355C76.9423 54.8422 76.369 54.5955 75.689 54.5955C75.009 54.5955 74.429 54.8422 73.949 55.3355C73.4823 55.8155 73.249 56.4822 73.249 57.3355C73.249 58.1889 73.4823 58.8689 73.949 59.3755C74.429 59.8689 75.009 60.1155 75.689 60.1155C76.369 60.1155 76.9423 59.8689 77.409 59.3755C77.889 58.8822 78.129 58.2089 78.129 57.3555ZM87.4432 48.1355V62.9355H84.0232V48.1355H87.4432ZM100.442 57.1755C100.442 57.4955 100.422 57.8289 100.382 58.1755H92.6416C92.695 58.8689 92.915 59.4022 93.3016 59.7755C93.7016 60.1355 94.1883 60.3155 94.7616 60.3155C95.615 60.3155 96.2083 59.9555 96.5416 59.2355H100.182C99.995 59.9689 99.655 60.6289 99.1616 61.2155C98.6816 61.8022 98.075 62.2622 97.3416 62.5955C96.6083 62.9289 95.7883 63.0955 94.8816 63.0955C93.7883 63.0955 92.815 62.8622 91.9616 62.3955C91.1083 61.9289 90.4416 61.2622 89.9616 60.3955C89.4816 59.5289 89.2416 58.5155 89.2416 57.3555C89.2416 56.1955 89.475 55.1822 89.9416 54.3155C90.4216 53.4489 91.0883 52.7822 91.9416 52.3155C92.795 51.8489 93.775 51.6155 94.8816 51.6155C95.9616 51.6155 96.9216 51.8422 97.7616 52.2955C98.6016 52.7489 99.255 53.3955 99.7216 54.2355C100.202 55.0755 100.442 56.0555 100.442 57.1755ZM96.9416 56.2755C96.9416 55.6889 96.7416 55.2222 96.3416 54.8755C95.9416 54.5289 95.4416 54.3555 94.8416 54.3555C94.2683 54.3555 93.7816 54.5222 93.3816 54.8555C92.995 55.1889 92.755 55.6622 92.6616 56.2755H96.9416ZM109.046 51.6555C110.353 51.6555 111.393 52.0822 112.166 52.9355C112.953 53.7755 113.346 54.9355 113.346 56.4155V62.9355H109.946V56.8755C109.946 56.1289 109.753 55.5489 109.366 55.1355C108.979 54.7222 108.459 54.5155 107.806 54.5155C107.153 54.5155 106.633 54.7222 106.246 55.1355C105.859 55.5489 105.666 56.1289 105.666 56.8755V62.9355H102.246V51.7755H105.666V53.2555C106.013 52.7622 106.479 52.3755 107.066 52.0955C107.653 51.8022 108.313 51.6555 109.046 51.6555ZM121.942 60.0355V62.9355H120.202C118.962 62.9355 117.996 62.6355 117.302 62.0355C116.609 61.4222 116.262 60.4289 116.262 59.0555V54.6155H114.902V51.7755H116.262V49.0555H119.682V51.7755H121.922V54.6155H119.682V59.0955C119.682 59.4289 119.762 59.6689 119.922 59.8155C120.082 59.9622 120.349 60.0355 120.722 60.0355H121.942ZM60.4213 66.8955V80.9355H57.0013V72.5155L53.8613 80.9355H51.1013L47.9413 72.4955V80.9355H44.5213V66.8955H48.5612L52.5013 76.6155L56.4013 66.8955H60.4213ZM62.2006 75.3355C62.2006 74.1889 62.414 73.1822 62.8406 72.3155C63.2806 71.4489 63.874 70.7822 64.6206 70.3155C65.3673 69.8489 66.2006 69.6155 67.1206 69.6155C67.9073 69.6155 68.594 69.7755 69.1806 70.0955C69.7806 70.4155 70.2406 70.8355 70.5606 71.3555V69.7755H73.9806V80.9355H70.5606V79.3555C70.2273 79.8755 69.7606 80.2955 69.1606 80.6155C68.574 80.9355 67.8873 81.0955 67.1006 81.0955C66.194 81.0955 65.3673 80.8622 64.6206 80.3955C63.874 79.9155 63.2806 79.2422 62.8406 78.3755C62.414 77.4955 62.2006 76.4822 62.2006 75.3355ZM70.5606 75.3555C70.5606 74.5022 70.3206 73.8289 69.8406 73.3355C69.374 72.8422 68.8006 72.5955 68.1206 72.5955C67.4406 72.5955 66.8606 72.8422 66.3806 73.3355C65.914 73.8155 65.6806 74.4822 65.6806 75.3355C65.6806 76.1889 65.914 76.8689 66.3806 77.3755C66.8606 77.8689 67.4406 78.1155 68.1206 78.1155C68.8006 78.1155 69.374 77.8689 69.8406 77.3755C70.3206 76.8822 70.5606 76.2089 70.5606 75.3555ZM83.2548 69.6555C84.5615 69.6555 85.6015 70.0822 86.3748 70.9355C87.1615 71.7755 87.5548 72.9355 87.5548 74.4155V80.9355H84.1548V74.8755C84.1548 74.1289 83.9615 73.5489 83.5748 73.1355C83.1882 72.7222 82.6682 72.5155 82.0148 72.5155C81.3615 72.5155 80.8415 72.7222 80.4548 73.1355C80.0682 73.5489 79.8748 74.1289 79.8748 74.8755V80.9355H76.4548V69.7755H79.8748V71.2555C80.2215 70.7622 80.6882 70.3755 81.2748 70.0955C81.8615 69.8022 82.5215 69.6555 83.2548 69.6555ZM89.2514 75.3355C89.2514 74.1889 89.4647 73.1822 89.8914 72.3155C90.3314 71.4489 90.9247 70.7822 91.6714 70.3155C92.4181 69.8489 93.2514 69.6155 94.1714 69.6155C94.9581 69.6155 95.6447 69.7755 96.2314 70.0955C96.8314 70.4155 97.2914 70.8355 97.6114 71.3555V69.7755H101.031V80.9355H97.6114V79.3555C97.2781 79.8755 96.8114 80.2955 96.2114 80.6155C95.6247 80.9355 94.9381 81.0955 94.1514 81.0955C93.2447 81.0955 92.4181 80.8622 91.6714 80.3955C90.9247 79.9155 90.3314 79.2422 89.8914 78.3755C89.4647 77.4955 89.2514 76.4822 89.2514 75.3355ZM97.6114 75.3555C97.6114 74.5022 97.3714 73.8289 96.8914 73.3355C96.4247 72.8422 95.8514 72.5955 95.1714 72.5955C94.4914 72.5955 93.9114 72.8422 93.4314 73.3355C92.9647 73.8155 92.7314 74.4822 92.7314 75.3355C92.7314 76.1889 92.9647 76.8689 93.4314 77.3755C93.9114 77.8689 94.4914 78.1155 95.1714 78.1155C95.8514 78.1155 96.4247 77.8689 96.8914 77.3755C97.3714 76.8822 97.6114 76.2089 97.6114 75.3555ZM107.746 69.6155C108.532 69.6155 109.219 69.7755 109.806 70.0955C110.406 70.4155 110.866 70.8355 111.186 71.3555V69.7755H114.606V80.9155C114.606 81.9422 114.399 82.8689 113.986 83.6955C113.586 84.5355 112.966 85.2022 112.126 85.6955C111.299 86.1889 110.266 86.4355 109.026 86.4355C107.372 86.4355 106.032 86.0422 105.006 85.2555C103.979 84.4822 103.392 83.4289 103.246 82.0955H106.626C106.732 82.5222 106.986 82.8555 107.386 83.0955C107.786 83.3489 108.279 83.4755 108.866 83.4755C109.572 83.4755 110.132 83.2689 110.546 82.8555C110.972 82.4555 111.186 81.8089 111.186 80.9155V79.3355C110.852 79.8555 110.392 80.2822 109.806 80.6155C109.219 80.9355 108.532 81.0955 107.746 81.0955C106.826 81.0955 105.992 80.8622 105.246 80.3955C104.499 79.9155 103.906 79.2422 103.466 78.3755C103.039 77.4955 102.826 76.4822 102.826 75.3355C102.826 74.1889 103.039 73.1822 103.466 72.3155C103.906 71.4489 104.499 70.7822 105.246 70.3155C105.992 69.8489 106.826 69.6155 107.746 69.6155ZM111.186 75.3555C111.186 74.5022 110.946 73.8289 110.466 73.3355C109.999 72.8422 109.426 72.5955 108.746 72.5955C108.066 72.5955 107.486 72.8422 107.006 73.3355C106.539 73.8155 106.306 74.4822 106.306 75.3355C106.306 76.1889 106.539 76.8689 107.006 77.3755C107.486 77.8689 108.066 78.1155 108.746 78.1155C109.426 78.1155 109.999 77.8689 110.466 77.3755C110.946 76.8822 111.186 76.2089 111.186 75.3555ZM127.6 75.1755C127.6 75.4955 127.58 75.8289 127.54 76.1755H119.8C119.853 76.8689 120.073 77.4022 120.46 77.7755C120.86 78.1355 121.347 78.3155 121.92 78.3155C122.773 78.3155 123.367 77.9555 123.7 77.2355H127.34C127.153 77.9689 126.813 78.6289 126.32 79.2155C125.84 79.8022 125.233 80.2622 124.5 80.5955C123.767 80.9289 122.947 81.0955 122.04 81.0955C120.947 81.0955 119.973 80.8622 119.12 80.3955C118.267 79.9289 117.6 79.2622 117.12 78.3955C116.64 77.5289 116.4 76.5155 116.4 75.3555C116.4 74.1955 116.633 73.1822 117.1 72.3155C117.58 71.4489 118.247 70.7822 119.1 70.3155C119.953 69.8489 120.933 69.6155 122.04 69.6155C123.12 69.6155 124.08 69.8422 124.92 70.2955C125.76 70.7489 126.413 71.3955 126.88 72.2355C127.36 73.0755 127.6 74.0555 127.6 75.1755ZM124.1 74.2755C124.1 73.6889 123.9 73.2222 123.5 72.8755C123.1 72.5289 122.6 72.3555 122 72.3555C121.427 72.3555 120.94 72.5222 120.54 72.8555C120.153 73.1889 119.913 73.6622 119.82 74.2755H124.1ZM132.824 71.6355C133.224 71.0222 133.724 70.5422 134.324 70.1955C134.924 69.8355 135.591 69.6555 136.324 69.6555V73.2755H135.384C134.531 73.2755 133.891 73.4622 133.464 73.8355C133.037 74.1955 132.824 74.8355 132.824 75.7555V80.9355H129.404V69.7755H132.824V71.6355Z" fill="white"/>
</svg>
