<svg width="780" height="1156" viewBox="0 0 780 1156" fill="none" xmlns="http://www.w3.org/2000/svg">
<path opacity="0.03" fill-rule="evenodd" clip-rule="evenodd" d="M197.048 1.33275C199.166 0.45287 201.436 0 203.728 0H576.272C578.564 0 580.834 0.45287 582.952 1.33275L714.666 56.0541C718.944 57.8311 722.342 61.2396 724.113 65.5297L778.671 197.639C780.443 201.929 780.443 206.749 778.671 211.039L724.113 343.148C722.342 347.438 718.944 350.847 714.666 352.624L621.887 391.169L714.666 429.715C718.944 431.492 722.342 434.901 724.113 439.191L778.671 571.3C780.443 575.59 780.443 580.41 778.671 584.7L724.113 716.809C722.342 721.099 718.944 724.508 714.666 726.285L582.952 781.006C578.675 782.783 573.869 782.783 569.592 781.006L437.878 726.285C433.6 724.508 430.202 721.099 428.43 716.809L407.456 666.021V762.35C407.456 762.767 407.442 763.18 407.413 763.59C407.442 764 407.456 764.413 407.456 764.831V951.661C407.456 953.96 407.005 956.237 406.127 958.361L351.57 1090.47C349.798 1094.76 346.4 1098.17 342.122 1099.95L210.408 1154.67C206.131 1156.44 201.325 1156.44 197.048 1154.67L65.3337 1099.95C61.0565 1098.17 57.6582 1094.76 55.8866 1090.47L1.32877 958.361C-0.442923 954.071 -0.442923 949.251 1.32877 944.961L55.8865 812.852C57.6582 808.562 61.0565 805.153 65.3338 803.376L161.099 763.59L65.3337 723.804C61.0565 722.027 57.6582 718.618 55.8866 714.328L1.32877 582.219C-0.442923 577.929 -0.442923 573.109 1.32877 568.819L55.8865 436.71C57.6582 432.42 61.0565 429.011 65.3337 427.234L155.127 389.929L65.3337 352.624C61.0565 350.847 57.6582 347.438 55.8866 343.148L1.32877 211.039C-0.442923 206.749 -0.442923 201.929 1.32877 197.639L55.8866 65.5297C57.6582 61.2396 61.0565 57.8311 65.3338 56.0541L197.048 1.33275ZM201.556 408.542L102.83 449.558L372.544 720.08V408.678H203.728C203 408.678 202.275 408.632 201.556 408.542ZM407.456 408.678V489.979L428.43 439.191C430.202 434.901 433.6 431.492 437.878 429.715L488.514 408.678H407.456ZM572.8 373.661H407.456V59.7777L677.17 330.3L572.8 373.661ZM701.856 305.539L743.649 204.339L694.626 85.6303L572.8 35.017H432.143L701.856 305.539ZM372.544 35.017H207.2L102.83 78.378L372.544 348.9V35.017ZM345.384 371.18H203.728C203 371.18 202.275 371.226 201.556 371.316L85.3743 323.048L36.3505 204.339L78.1437 103.139L345.384 371.18ZM576.272 410.121L475.374 452.039L701.856 679.2L743.649 578L694.626 459.291L576.272 410.121ZM677.169 703.961L450.688 476.8L408.894 578L457.918 696.709L576.272 745.879L677.169 703.961ZM347.857 744.841L78.1437 474.319L36.3506 575.519L85.3743 694.228L207.2 744.841H347.857ZM207.2 782.339H372.544V948.178L329.312 1052.86L102.83 825.7L207.2 782.339ZM78.1437 850.461L36.3506 951.661L85.3743 1070.37L203.728 1119.54L304.626 1077.62L78.1437 850.461Z" fill="#6200FF"/>
</svg>
