<svg width="720" height="160" viewBox="0 0 720 160" fill="none" xmlns="http://www.w3.org/2000/svg">
<path d="M23.7679 1.27463C26.3193 1.27463 27.8707 3.28721 28.5452 4.22642L78.9996 72.7883C79.202 72.7883 79.8765 73.4591 80.3487 73.4591C80.7534 73.4591 81.4279 72.7883 81.6977 72.7883L131.882 3.75681C132.759 2.81761 134.108 1.74423 135.929 1.74423H138.83C140.853 1.74423 142.877 3.28721 143.079 5.50105L160.617 153.761C160.954 156.176 158.593 158.457 156.233 158.457H124.53C122.506 158.457 120.483 156.914 120.483 154.7L115.087 91.1698C115.087 89.1572 113.063 88.6876 111.714 90.2306L84.0585 125.115C83.384 125.786 82.035 127.128 80.6859 127.128C79.3369 127.128 77.9878 125.786 77.3133 125.115L50.3323 90.2306C49.6578 88.218 46.9597 88.8889 46.9597 90.9015L41.5635 153.962C40.889 155.975 39.5399 157.317 36.8418 157.317H4.39723C2.03639 157.317 -0.189539 154.633 0.0128183 152.621L17.5504 4.36059C17.8877 1.67715 19.8438 1.27463 21.8674 1.27463H23.7679ZM241.088 0.33543H247.158C249.182 0.33543 251.206 1.67715 252.555 3.68973L315.285 151.95C315.96 154.633 313.936 156.646 311.238 156.646H277.512C274.814 156.646 272.79 155.304 272.116 153.291L268.743 145.241C267.394 142.558 265.371 141.216 263.347 141.216H222.201C219.503 141.216 218.154 142.558 216.805 144.57L213.5 152.017C212.151 154.7 210.127 155.371 208.104 155.371H173.703C171.679 155.371 168.981 153.358 170.33 150.675L233.735 3.75681C235.085 1.47589 236.906 0.134172 239.132 0.134172L241.088 0.33543ZM231.037 109.484C230.633 110.625 231.375 112.168 232.724 112.168H252.285C253.634 112.168 254.308 110.625 253.634 109.484L244.191 85.5346C243.718 84.8637 243.516 84.1929 242.369 84.1929C241.223 84.1929 241.02 84.1929 240.683 84.8637L231.24 109.686L231.037 109.484ZM308.608 2.14675H420.579C422.872 2.14675 424.896 4.15933 424.896 6.17191V34.8176C424.896 37.0314 422.872 38.9769 420.174 38.9769H387.46C386.11 38.9769 384.761 39.6478 384.761 41.6604V154.365C384.761 156.377 382.738 158.39 380.04 158.39H348.405C346.044 158.39 344.357 156.377 344.357 153.828V41.9958C344.357 40.3857 342.739 39.3124 341.39 39.3124H308.81C306.382 39.3124 304.561 37.2998 304.561 35.086V6.44025C304.561 4.22641 306.449 2.21384 308.877 2.21384L308.608 2.14675ZM434.744 74.3312C434.744 30.1887 466.446 0 509.616 0C526.951 0 543.882 5.36688 557.507 16.1006C559.8 17.979 559.531 20.5954 558.182 22.4067L539.7 46.3564C538.148 48.369 535.248 48.5702 533.224 46.826C526.951 41.2579 518.047 37.9036 509.616 37.9036C488.031 37.9036 476.564 51.9916 476.564 74.13V86.8763C476.564 109.015 488.031 122.432 509.616 122.432C518.047 122.432 526.277 119.078 532.954 113.711C534.978 111.698 537.474 111.698 539.025 113.711L558.182 138.532C559.8 139.874 559.531 143.229 557.507 144.57C543.882 155.304 528.503 160 509.616 160C465.569 160 434.744 129.811 434.744 86.2055V73.4591V74.3312ZM585.837 2.21384H618.417C620.643 2.21384 622.666 4.22641 622.666 6.44025V61.9203C622.666 63.2621 623.745 64.3354 625.364 64.3354H676.223C677.572 64.3354 678.652 63.2621 678.652 61.9203V6.44025C678.652 4.15933 680.675 2.21384 683.373 2.21384H715.75C717.976 2.21384 720 4.22641 720 6.44025V154.7C720 156.914 717.976 158.927 715.278 158.927H682.901C680.203 158.927 678.18 156.914 678.18 154.7V100.763C678.18 99.153 676.83 97.8784 675.481 97.8784H624.96C623.476 97.8784 622.261 99.2201 622.261 100.763V154.7C622.261 156.914 620.238 158.927 618.214 158.927H585.567C583.072 158.927 581.048 156.914 581.048 154.7V6.44025C581.048 4.22641 583.072 2.21384 585.095 2.21384" fill="white"/>
</svg>
