<svg width="120" height="120" viewBox="0 0 120 120" fill="none" xmlns="http://www.w3.org/2000/svg">
<path fill-rule="evenodd" clip-rule="evenodd" d="M60 120C26.8629 120 0 93.1371 0 60C0 26.8629 26.8629 0 60 0C93.1371 0 120 26.8629 120 60C120 93.1371 93.1371 120 60 120ZM60 112.8C78.9647 112.8 95.594 102.802 104.904 87.7887L60.2987 69.8844L15.2151 87.9802C24.548 102.887 41.1162 112.8 60 112.8ZM13.2815 84.624L50.7398 55.2211L57.5922 7.25393C29.5493 8.51251 7.2 31.6464 7.2 60C7.2 68.8927 9.39844 77.272 13.2815 84.624ZM69.1849 54.6933L106.892 84.292C110.667 77.02 112.8 68.7593 112.8 60C112.8 31.6464 90.4507 8.51251 62.4078 7.25393L69.1849 54.6933Z" fill="#0A0040"/>
</svg>
