<svg width="170" height="65" viewBox="0 0 170 65" fill="none" xmlns="http://www.w3.org/2000/svg">
<path d="M36.0172 2.96924C29.4612 22.8895 22.9573 42.8269 16.4315 62.757" stroke="#0A0040" stroke-width="3" stroke-linecap="round"/>
<path d="M2 16.4315C20.7424 12.5728 39.181 6.88243 57.6645 2" stroke="#0A0040" stroke-width="3" stroke-linecap="round"/>
<path d="M34.2747 38.0172C32.3912 44.8312 23.2998 68.0118 27.5415 62.3561C33.7622 54.0618 39.632 44.8531 46.8981 37.4445C51.2145 33.0435 44.5426 45.6563 43.8629 47.6955C41.1765 55.7547 49.524 45.3574 50.8496 43.8013C55.7557 38.042 53.4764 42.5702 53.5412 47.7528C53.6667 57.7921 59.7408 38.1264 60.6997 35.6692C64.2746 26.5084 62.4685 42.3913 61.7747 45.248C59.4064 54.9999 65.7791 38.9145 68.7747 35.6692" stroke="#0A0040" stroke-width="3" stroke-linecap="round"/>
<path d="M95.0201 3.98633C92.9126 18.7386 90.1624 33.8837 85.123 47.941C84.5923 49.4214 82.2779 52.3202 83.8422 52.482C86.1054 52.7161 89.6186 50.5671 91.5561 49.7457C101.235 45.6428 111.984 39.6158 122.79 39.6158" stroke="#0A0040" stroke-width="3" stroke-linecap="round"/>
<path d="M128.554 29.1365C128.013 31.8062 125.244 41.8275 128.234 43.7493C131.692 45.9729 136.539 45.0591 137.869 41.0713C139.091 37.4029 137.865 32.4135 133.56 31.5526C128.725 30.5854 131.22 42.7834 131.785 44.6517C132.332 46.4601 133.189 49.1866 135.336 49.6875C138.053 50.3216 138.453 44.1765 138.684 42.6431C138.965 40.7728 139.372 37.8727 138.247 36.1227C137.572 35.0723 137.565 39.0753 137.578 39.2083C137.879 42.328 140.475 47.0604 143.283 42.614C145.161 39.6407 146.715 35.5401 146.892 31.9892C146.987 30.0971 145.702 33.0775 145.612 33.3574C144.047 38.1932 146.919 38.6099 149.92 35.1912C151.481 33.4127 152.665 31.2795 153.646 29.1365C154.201 27.9239 152.782 31.2091 152.685 31.5235C152.276 32.8527 151.902 34.5109 152.743 35.7734C154.163 37.9032 157.242 31.9402 157.721 31.116C157.896 30.8147 159.544 26.3973 159.089 28.8746C158.48 32.191 156.69 36.8297 157.605 40.198C158.266 42.6347 161.08 36.9198 161.098 36.8795C162.416 33.7895 163.077 30.14 163.077 26.7787C163.077 24.0916 161.846 31.8781 161.796 32.3968C161.758 32.7968 161.155 38.7134 162.466 38.7134C164.021 38.7134 165.343 33.827 165.639 32.8334C166.187 30.9898 166.853 25.2631 166.279 27.0989C165.226 30.4701 165.585 34.9467 165.813 38.4223C165.846 38.9222 166.118 40.2545 166.366 39.8196C168.048 36.8773 167.831 31.738 168.375 28.6126" stroke="#0A0040" stroke-width="3" stroke-linecap="round"/>
</svg>
