<svg width="142" height="166" viewBox="0 0 142 166" fill="none" xmlns="http://www.w3.org/2000/svg">
<path fill-rule="evenodd" clip-rule="evenodd" d="M47.7467 25.5C47.4683 25.5 47.1925 25.5548 46.9353 25.6614L30.9361 32.2886C30.4165 32.5038 30.0037 32.9166 29.7885 33.4361L23.1614 49.4355C22.9462 49.955 22.9462 50.5388 23.1614 51.0584L29.7885 67.0577C30.0037 67.5773 30.4165 67.9901 30.936 68.2053L41.8432 72.7232L30.936 77.2412C30.4165 77.4564 30.0037 77.8691 29.7885 78.3887L23.1614 94.3881C22.9462 94.9076 22.9462 95.4914 23.1614 96.011L29.7885 112.01C30.0037 112.53 30.4165 112.943 30.936 113.158L42.5686 117.976L30.9361 122.795C30.4165 123.01 30.0037 123.423 29.7885 123.942L23.1614 139.942C22.9462 140.461 22.9462 141.045 23.1614 141.564L29.7885 157.564C30.0037 158.083 30.4165 158.496 30.936 158.711L46.9353 165.339C47.4548 165.554 48.0386 165.554 48.5582 165.339L64.5574 158.711C65.0769 158.496 65.4897 158.083 65.7049 157.564L72.332 141.564C72.4386 141.307 72.4934 141.031 72.4934 140.753V118.127C72.4934 118.076 72.4917 118.026 72.4882 117.976C72.4917 117.927 72.4934 117.877 72.4934 117.826V106.16L75.0412 112.311C75.2564 112.83 75.6692 113.243 76.1887 113.458L92.188 120.086C92.7075 120.301 93.2913 120.301 93.8108 120.086L109.81 113.458C110.33 113.243 110.742 112.83 110.958 112.311L117.585 96.3114C117.8 95.7919 117.8 95.2081 117.585 94.6885L110.958 78.6892C110.742 78.1696 110.33 77.7568 109.81 77.5416L98.5402 72.8735L109.81 68.2053C110.33 67.9901 110.742 67.5773 110.958 67.0577L117.585 51.0584C117.8 50.5388 117.8 49.955 117.585 49.4355L110.958 33.4361C110.742 32.9166 110.33 32.5038 109.81 32.2886L93.8108 25.6614C93.5536 25.5548 93.2778 25.5 92.9994 25.5H47.7467ZM47.4829 74.9774L35.4907 79.9447L68.2527 112.707V74.9939H47.7467C47.6583 74.9939 47.5702 74.9883 47.4829 74.9774ZM72.4934 74.9939V84.84L75.0412 78.6892C75.2564 78.1696 75.6692 77.7568 76.1887 77.5416L82.3395 74.9939H72.4934ZM72.4934 70.753H92.5776L105.255 65.5017L72.4934 32.7395V70.753ZM108.254 62.503L113.331 50.2469L107.376 35.8704L92.5776 29.7408H75.4921L108.254 62.503ZM68.2527 29.7408H48.1685L35.4907 34.9921L68.2527 67.7543V29.7408ZM47.7467 70.4526H64.9535L32.4921 37.9909L27.4155 50.2469L33.3704 64.6234L47.4829 70.4691C47.5702 70.4581 47.6583 70.4526 47.7467 70.4526ZM92.9994 75.1686L80.7434 80.2452L108.254 107.756L113.331 95.5L107.376 81.1235L92.9994 75.1686ZM105.255 110.755L77.7447 83.2439L72.6681 95.5L78.623 109.876L92.9994 115.831L105.255 110.755ZM65.254 115.706L32.4921 82.9434L27.4155 95.1995L33.3704 109.576L48.1685 115.706H65.254ZM68.2527 120.247H48.1685L35.4908 125.498L63.0014 153.009L68.2527 140.331V120.247ZM32.4921 128.497L27.4155 140.753L33.3704 155.13L47.7467 161.084L60.0027 156.008L32.4921 128.497Z" fill="#0A0040"/>
<rect x="87.373" y="2" width="52" height="52" rx="26" fill="#6200FF" stroke="#F4F2F7" stroke-width="4"/>
<path d="M102.235 38.3678V42.2663C102.235 42.6934 102.346 43.0213 102.569 43.2499C102.792 43.4725 103.104 43.5838 103.507 43.5838C103.917 43.5838 104.232 43.4725 104.455 43.2499C104.678 43.0213 104.789 42.6934 104.789 42.2663V38.3678H106.061V42.2573C106.061 42.7927 105.944 43.2469 105.709 43.6199C105.481 43.9869 105.171 44.2637 104.78 44.4502C104.395 44.6367 103.965 44.7299 103.489 44.7299C103.02 44.7299 102.593 44.6367 102.208 44.4502C101.829 44.2637 101.528 43.9869 101.306 43.6199C101.083 43.2469 100.972 42.7927 100.972 42.2573V38.3678H102.235ZM109.195 44.748C108.786 44.748 108.419 44.6758 108.094 44.5314C107.769 44.381 107.511 44.1794 107.318 43.9268C107.132 43.6741 107.029 43.3943 107.011 43.0875H108.284C108.308 43.28 108.401 43.4395 108.563 43.5658C108.732 43.6921 108.939 43.7553 109.186 43.7553C109.427 43.7553 109.613 43.7072 109.746 43.6109C109.884 43.5147 109.953 43.3913 109.953 43.2409C109.953 43.0785 109.869 42.9582 109.7 42.8799C109.538 42.7957 109.276 42.7055 108.915 42.6092C108.542 42.519 108.236 42.4257 107.995 42.3295C107.76 42.2332 107.556 42.0858 107.381 41.8873C107.213 41.6887 107.129 41.421 107.129 41.0841C107.129 40.8074 107.207 40.5547 107.363 40.3261C107.526 40.0975 107.754 39.917 108.049 39.7846C108.35 39.6523 108.702 39.5861 109.105 39.5861C109.7 39.5861 110.176 39.7365 110.531 40.0373C110.886 40.3321 111.081 40.7322 111.117 41.2375H109.908C109.89 41.039 109.806 40.8826 109.655 40.7683C109.511 40.648 109.315 40.5878 109.069 40.5878C108.84 40.5878 108.663 40.6299 108.536 40.7141C108.416 40.7984 108.356 40.9157 108.356 41.0661C108.356 41.2345 108.44 41.3639 108.609 41.4541C108.777 41.5383 109.039 41.6256 109.394 41.7158C109.755 41.8061 110.052 41.8993 110.287 41.9956C110.522 42.0918 110.723 42.2422 110.892 42.4468C111.066 42.6453 111.156 42.91 111.162 43.2409C111.162 43.5297 111.081 43.7884 110.919 44.017C110.762 44.2456 110.534 44.4261 110.233 44.5585C109.938 44.6848 109.592 44.748 109.195 44.748ZM116.847 42.0587C116.847 42.2392 116.835 42.4017 116.811 42.5461H113.156C113.186 42.907 113.312 43.1898 113.535 43.3943C113.758 43.5989 114.031 43.7012 114.356 43.7012C114.826 43.7012 115.159 43.4996 115.358 43.0965H116.721C116.576 43.5778 116.299 43.9749 115.89 44.2877C115.481 44.5946 114.979 44.748 114.383 44.748C113.902 44.748 113.469 44.6427 113.084 44.4321C112.705 44.2155 112.407 43.9117 112.19 43.5207C111.98 43.1296 111.875 42.6784 111.875 42.167C111.875 41.6496 111.98 41.1954 112.19 40.8044C112.401 40.4133 112.696 40.1125 113.075 39.902C113.454 39.6914 113.89 39.5861 114.383 39.5861C114.859 39.5861 115.283 39.6884 115.656 39.8929C116.035 40.0975 116.327 40.3893 116.531 40.7683C116.742 41.1413 116.847 41.5714 116.847 42.0587ZM115.538 41.6978C115.532 41.3729 115.415 41.1142 115.186 40.9217C114.958 40.7232 114.678 40.6239 114.347 40.6239C114.034 40.6239 113.77 40.7201 113.553 40.9127C113.343 41.0992 113.213 41.3609 113.165 41.6978H115.538ZM119.033 40.4434C119.195 40.1787 119.406 39.9711 119.664 39.8207C119.929 39.6703 120.23 39.5951 120.567 39.5951V40.9217H120.233C119.836 40.9217 119.535 41.0149 119.33 41.2014C119.132 41.3879 119.033 41.7128 119.033 42.1761V44.6667H117.769V39.6673H119.033V40.4434ZM123.331 44.748C122.922 44.748 122.555 44.6758 122.23 44.5314C121.905 44.381 121.646 44.1794 121.454 43.9268C121.267 43.6741 121.165 43.3943 121.147 43.0875H122.419C122.443 43.28 122.537 43.4395 122.699 43.5658C122.867 43.6921 123.075 43.7553 123.322 43.7553C123.562 43.7553 123.749 43.7072 123.881 43.6109C124.02 43.5147 124.089 43.3913 124.089 43.2409C124.089 43.0785 124.005 42.9582 123.836 42.8799C123.674 42.7957 123.412 42.7055 123.051 42.6092C122.678 42.519 122.371 42.4257 122.13 42.3295C121.896 42.2332 121.691 42.0858 121.517 41.8873C121.348 41.6887 121.264 41.421 121.264 41.0841C121.264 40.8074 121.342 40.5547 121.499 40.3261C121.661 40.0975 121.89 39.917 122.185 39.7846C122.485 39.6523 122.837 39.5861 123.24 39.5861C123.836 39.5861 124.311 39.7365 124.666 40.0373C125.021 40.3321 125.217 40.7322 125.253 41.2375H124.044C124.026 41.039 123.941 40.8826 123.791 40.7683C123.647 40.648 123.451 40.5878 123.204 40.5878C122.976 40.5878 122.798 40.6299 122.672 40.7141C122.552 40.7984 122.491 40.9157 122.491 41.0661C122.491 41.2345 122.576 41.3639 122.744 41.4541C122.913 41.5383 123.174 41.6256 123.529 41.7158C123.89 41.8061 124.188 41.8993 124.423 41.9956C124.657 42.0918 124.859 42.2422 125.027 42.4468C125.202 42.6453 125.292 42.91 125.298 43.2409C125.298 43.5297 125.217 43.7884 125.054 44.017C124.898 44.2456 124.669 44.4261 124.369 44.5585C124.074 44.6848 123.728 44.748 123.331 44.748Z" fill="white"/>
<path d="M105.733 18.0632C105.144 18.0632 104.602 17.9248 104.109 17.6481C103.616 17.3713 103.225 16.9893 102.936 16.502C102.647 16.0087 102.503 15.4522 102.503 14.8325C102.503 14.2188 102.647 13.6684 102.936 13.1811C103.225 12.6877 103.616 12.3027 104.109 12.026C104.602 11.7492 105.144 11.6108 105.733 11.6108C106.329 11.6108 106.87 11.7492 107.358 12.026C107.851 12.3027 108.239 12.6877 108.522 13.1811C108.811 13.6684 108.955 14.2188 108.955 14.8325C108.955 15.4522 108.811 16.0087 108.522 16.502C108.239 16.9893 107.851 17.3713 107.358 17.6481C106.864 17.9248 106.323 18.0632 105.733 18.0632ZM105.733 16.9351C106.112 16.9351 106.446 16.8509 106.735 16.6825C107.024 16.508 107.249 16.2613 107.412 15.9425C107.574 15.6236 107.656 15.2536 107.656 14.8325C107.656 14.4114 107.574 14.0444 107.412 13.7315C107.249 13.4127 107.024 13.169 106.735 13.0006C106.446 12.8321 106.112 12.7479 105.733 12.7479C105.354 12.7479 105.017 12.8321 104.723 13.0006C104.434 13.169 104.208 13.4127 104.046 13.7315C103.883 14.0444 103.802 14.4114 103.802 14.8325C103.802 15.2536 103.883 15.6236 104.046 15.9425C104.208 16.2613 104.434 16.508 104.723 16.6825C105.017 16.8509 105.354 16.9351 105.733 16.9351ZM111.98 16.8359L113.243 13.0006H114.588L112.738 18H111.203L109.363 13.0006H110.716L111.98 16.8359ZM119.945 15.392C119.945 15.5725 119.933 15.7349 119.909 15.8793H116.254C116.284 16.2403 116.41 16.523 116.633 16.7276C116.855 16.9321 117.129 17.0344 117.454 17.0344C117.923 17.0344 118.257 16.8329 118.456 16.4298H119.818C119.674 16.9111 119.397 17.3081 118.988 17.621C118.579 17.9278 118.077 18.0812 117.481 18.0812C117 18.0812 116.567 17.9759 116.182 17.7654C115.802 17.5488 115.505 17.245 115.288 16.8539C115.078 16.4629 114.972 16.0117 114.972 15.5003C114.972 14.9829 115.078 14.5287 115.288 14.1376C115.499 13.7466 115.793 13.4458 116.172 13.2352C116.552 13.0246 116.988 12.9194 117.481 12.9194C117.956 12.9194 118.38 13.0216 118.753 13.2262C119.132 13.4307 119.424 13.7225 119.629 14.1015C119.839 14.4745 119.945 14.9047 119.945 15.392ZM118.636 15.031C118.63 14.7062 118.513 14.4475 118.284 14.2549C118.056 14.0564 117.776 13.9571 117.445 13.9571C117.132 13.9571 116.867 14.0534 116.651 14.2459C116.44 14.4324 116.311 14.6941 116.263 15.031H118.636ZM122.13 13.7767C122.293 13.5119 122.503 13.3044 122.762 13.154C123.027 13.0036 123.327 12.9284 123.664 12.9284V14.2549H123.33C122.933 14.2549 122.633 14.3482 122.428 14.5347C122.229 14.7212 122.13 15.0461 122.13 15.5093V18H120.867V13.0006H122.13V13.7767Z" fill="white"/>
<path d="M105.608 24.2744H100.02V26.3417C100.256 26.0934 100.579 25.8947 100.989 25.7457C101.399 25.5967 101.852 25.5222 102.348 25.5222C103.242 25.5222 103.987 25.7271 104.583 26.1368C105.192 26.5466 105.639 27.0867 105.924 27.7572C106.21 28.4276 106.353 29.1602 106.353 29.9548C106.353 31.4199 105.937 32.5746 105.105 33.4189C104.273 34.2508 103.118 34.6667 101.641 34.6667C100.61 34.6667 99.7161 34.4929 98.9587 34.1453C98.2138 33.7852 97.6426 33.2886 97.2453 32.6553C96.848 32.0221 96.6431 31.2958 96.6307 30.4763H100.188C100.225 30.7619 100.349 31.0102 100.56 31.2213C100.772 31.4323 101.082 31.5379 101.492 31.5379C101.926 31.5379 102.255 31.3889 102.479 31.0909C102.702 30.7929 102.814 30.3956 102.814 29.8989C102.814 29.4147 102.696 29.0484 102.46 28.8001C102.224 28.5394 101.883 28.409 101.436 28.409C101.101 28.409 100.827 28.4959 100.616 28.6697C100.418 28.8312 100.3 29.036 100.262 29.2843H96.7052V21.0524H105.608V24.2744ZM117.812 24.2744H112.224V26.3417C112.46 26.0934 112.783 25.8947 113.193 25.7457C113.602 25.5967 114.056 25.5222 114.552 25.5222C115.446 25.5222 116.191 25.7271 116.787 26.1368C117.396 26.5466 117.843 27.0867 118.128 27.7572C118.414 28.4276 118.557 29.1602 118.557 29.9548C118.557 31.4199 118.141 32.5746 117.309 33.4189C116.477 34.2508 115.322 34.6667 113.845 34.6667C112.814 34.6667 111.92 34.4929 111.163 34.1453C110.418 33.7852 109.847 33.2886 109.449 32.6553C109.052 32.0221 108.847 31.2958 108.835 30.4763H112.392C112.429 30.7619 112.553 31.0102 112.764 31.2213C112.975 31.4323 113.286 31.5379 113.696 31.5379C114.13 31.5379 114.459 31.3889 114.683 31.0909C114.906 30.7929 115.018 30.3956 115.018 29.8989C115.018 29.4147 114.9 29.0484 114.664 28.8001C114.428 28.5394 114.087 28.409 113.64 28.409C113.305 28.409 113.031 28.4959 112.82 28.6697C112.622 28.8312 112.504 29.036 112.466 29.2843H108.909V21.0524H117.812V24.2744ZM126.961 34.6667L124.074 30.3832V34.6667H120.424V20.8848H124.074V28.3159L126.961 24.2185H131.338L127.222 29.4706L131.412 34.6667H126.961Z" fill="white"/>
</svg>
